<svg xmlns="http://www.w3.org/2000/svg" xmlns:xlink="http://www.w3.org/1999/xlink" width="1920" zoomAndPan="magnify" viewBox="0 0 1440 1206.749942" height="1609" preserveAspectRatio="xMidYMid meet" version="1.2"><defs><clipPath id="e6f6338bd3"><path d="M 0.148438 0 L 1439.851562 0 L 1439.851562 1206.5 L 0.148438 1206.5 Z M 0.148438 0 "/></clipPath><clipPath id="50fe232bb0"><path d="M 0.148438 0 L 1439.851562 0 L 1439.851562 534.160156 L 0.148438 534.160156 Z M 0.148438 0 "/></clipPath><clipPath id="5e0351d1d8"><path d="M 712.949219 0 C 230.570312 0 -160.476562 119.574219 -160.476562 267.078125 C -160.476562 414.582031 230.570312 534.160156 712.949219 534.160156 C 1195.328125 534.160156 1586.375 414.582031 1586.375 267.078125 C 1586.375 119.574219 1195.328125 0 712.949219 0 Z M 712.949219 0 "/></clipPath><clipPath id="b07bbdbdd2"><path d="M 0.148438 336.171875 L 1439.851562 336.171875 L 1439.851562 870.328125 L 0.148438 870.328125 Z M 0.148438 336.171875 "/></clipPath><clipPath id="3d92dac118"><path d="M 711.785156 336.171875 C 80.578125 336.171875 -431.121094 455.746094 -431.121094 603.25 C -431.121094 750.753906 80.578125 870.328125 711.785156 870.328125 C 1342.996094 870.328125 1854.691406 750.753906 1854.691406 603.25 C 1854.691406 455.746094 1342.996094 336.171875 711.785156 336.171875 Z M 711.785156 336.171875 "/></clipPath><clipPath id="1c81b9e166"><path d="M 0.148438 672.339844 L 1439.851562 672.339844 L 1439.851562 1206.5 L 0.148438 1206.5 Z M 0.148438 672.339844 "/></clipPath><clipPath id="80fad4c607"><path d="M 720 672.339844 C 237.621094 672.339844 -153.425781 791.917969 -153.425781 939.421875 C -153.425781 1086.925781 237.621094 1206.5 720 1206.5 C 1202.378906 1206.5 1593.425781 1086.925781 1593.425781 939.421875 C 1593.425781 791.917969 1202.378906 672.339844 720 672.339844 Z M 720 672.339844 "/></clipPath></defs><g id="1aca2af321"><g clip-rule="nonzero" clip-path="url(#e6f6338bd3)"><path style=" stroke:none;fill-rule:nonzero;fill:#ffffff;fill-opacity:1;" d="M 0.148438 0 L 1439.851562 0 L 1439.851562 1206.5 L 0.148438 1206.5 Z M 0.148438 0 "/><path style=" stroke:none;fill-rule:nonzero;fill:#ffffff;fill-opacity:1;" d="M 0.148438 0 L 1439.851562 0 L 1439.851562 1206.5 L 0.148438 1206.5 Z M 0.148438 0 "/></g><g clip-rule="nonzero" clip-path="url(#50fe232bb0)"><g clip-rule="nonzero" clip-path="url(#5e0351d1d8)"><path style=" stroke:none;fill-rule:nonzero;fill:#000000;fill-opacity:1;" d="M -160.476562 0 L 1585.972656 0 L 1585.972656 534.160156 L -160.476562 534.160156 Z M -160.476562 0 "/></g></g><g clip-rule="nonzero" clip-path="url(#b07bbdbdd2)"><g clip-rule="nonzero" clip-path="url(#3d92dac118)"><path style=" stroke:none;fill-rule:nonzero;fill:#000000;fill-opacity:1;" d="M -431.121094 336.171875 L 1853.664062 336.171875 L 1853.664062 870.328125 L -431.121094 870.328125 Z M -431.121094 336.171875 "/></g></g><g clip-rule="nonzero" clip-path="url(#1c81b9e166)"><g clip-rule="nonzero" clip-path="url(#80fad4c607)"><path style=" stroke:none;fill-rule:nonzero;fill:#000000;fill-opacity:1;" d="M -153.425781 672.339844 L 1593.027344 672.339844 L 1593.027344 1206.5 L -153.425781 1206.5 Z M -153.425781 672.339844 "/></g></g></g></svg>